PathFileType	4	(X/Y/Z)	22_1_22_p0_0-175.trc
DataRate	CameraRate	NumFrames	NumMarkers	Units	OrigDataRate	OrigDataStartFrame	OrigNumFrames
59.0	59.0	7	27	m	59.0	154	176
Frame#	Time	RHip			RKnee			RAnkle			RBigToe			RSmallToe			RHeel			LHip			LKnee			LAnkle			LBigToe			LSmallToe			LHeel			Neck			Head			Nose			RShoulder			RElbow			RWrist			RThumb			RIndex			RPinky			LShoulder			LElbow			LWrist			LThumb			LIndex			LPinky			
		X1	Y1	Z1	X2	Y2	Z2	X3	Y3	Z3	X4	Y4	Z4	X5	Y5	Z5	X6	Y6	Z6	X7	Y7	Z7	X8	Y8	Z8	X9	Y9	Z9	X10	Y10	Z10	X11	Y11	Z11	X12	Y12	Z12	X13	Y13	Z13	X14	Y14	Z14	X15	Y15	Z15	X16	Y16	Z16	X17	Y17	Z17	X18	Y18	Z18	X19	Y19	Z19	X20	Y20	Z20	X21	Y21	Z21	X22	Y22	Z22	X23	Y23	Z23	X24	Y24	Z24	X25	Y25	Z25	X26	Y26	Z26	X27	Y27	Z27	
154	2.610169491525424	0.2547556991637584	0.628007663829163	0.8865578111072022	0.28569439180253403	0.7694984354676077	1.375116242040469	0.29123417708436167	0.9302627105904142	1.8291257072104687	0.2347357595078076	0.671722007431944	1.8617372067325242	0.3102559108626027	0.7067763245867991	1.8634901356369895	0.2924739959238969	1.0232606186421613	1.87910131234769	0.0274842237662864	0.6595306920570403	0.9089895804606511	0.058381565083730554	0.7693950679045791	1.3833623384544789	0.09542276130128488	0.9051342997029063	1.8250479924860892	0.1240393513321301	0.724390623492261	1.8873759318581451	0.05707017129282759	0.7485021888501716	1.8819932783339823	0.11135645272632114	1.0387184996486787	1.9084752169184902	0.10656732741018986	0.5100666263325456	0.36893469739517926	0.09103310980842419	0.4052651938610069	0.14453764574973446	0.0718176197172438	0.33926814002650324	0.28841368314867255	0.25508556021386003	0.46322071125255887	0.44286961878219067	0.35231119818615675	0.5222613482979234	0.706852319076291	0.2001145710959185	0.4121982184145359	0.9107689369193956	0.05862621610401656	0.3763634593834143	0.9807446075237033	0.06816343006922988	0.40732120918240655	1.0220376090435594	0.12314994219130874	0.4442231900883096	1.0502584262146784	-0.041941847855236594	0.5042956614246497	0.4430486107594217	-0.08825442167478706	0.5546906222829331	0.6997108548082079	0.03797771192051367	0.4916604050271997	0.9306990786118375	0.11536322247201868	0.42547673135156455	0.9821166507879221	0.12015984163142912	0.4422045614395197	1.0229627832486212	0.11149839199530419	0.46173514707207053	1.0446481164082753
155	2.6271186440677967	0.2603275574402232	0.6264335964799884	0.8888376980054413	0.2865881281640871	0.7690528907811816	1.3814387655038673	0.2912582380320954	0.930300693738623	1.8291408767970256	0.2310646691148702	0.6703905090463963	1.8609767103990045	0.31083220053323546	0.7065531762193733	1.8632770025724699	0.2926951929459843	1.0244334657292913	1.8758894757039637	0.029375776982421428	0.6602017404367064	0.9164786320836485	0.06015628322913231	0.7713729740886311	1.3913279924838784	0.09559067989235298	0.9050777333069473	1.8250061233544543	0.12043571756031274	0.7229638067368358	1.8861818490986006	0.05755497704727761	0.7478302834215815	1.8814444016904401	0.11610446038648134	1.0444466738240101	1.9068036168939841	0.10671472996122779	0.5098942204316013	0.36902430160396205	0.09152659124572432	0.4067778624005164	0.1477729100507255	0.07263393370810614	0.3410358704453342	0.29450769447092223	0.2550833745472737	0.4632256993336433	0.4428094909792463	0.35094881142648754	0.5363393276113843	0.7067825842213507	0.19820194594859017	0.4229589109833541	0.9039042368250553	0.058570317329710776	0.38861888893321733	0.988803934389753	0.06341890939369055	0.40661151505178744	1.0121201820959718	0.11818928238793354	0.44468519565968045	1.049900427272287	-0.041997948963298906	0.5041327799321235	0.44310460834179627	-0.08520528434553994	0.5416982912691168	0.7030379693369792	0.04003392252234811	0.47888514730391263	0.9300308056301831	0.1170375216541865	0.43761998607662445	0.9957858653144974	0.12130344942768174	0.4445329735188449	1.0310161003651361	0.1101396503320429	0.46185754846883703	1.0337921352940898
156	2.6440677966101696	0.2616882722086631	0.6277095224351853	0.8967961727784152	0.28718046907673594	0.7684083625623392	1.3842326908103864	0.2913851841386773	0.9297119132736544	1.8291706869759272	0.22705139502028188	0.6569214241421384	1.8559142308750742	0.3115490041977881	0.7048106237692113	1.8625206328939004	0.2890847899113733	1.0082483273880503	1.8757058742829047	0.030177962308531203	0.659410714909211	0.9162737920829869	0.060348726994751835	0.771181228633067	1.3910884871877733	0.09479322244230905	0.9065358922462421	1.8300316820519058	0.10923622743633232	0.6910298876128282	1.8739980587301959	0.05361999367763544	0.746770971779798	1.880819492946459	0.1250953159634346	1.0304682019337568	1.898834025926704	0.10679268274067133	0.5108110882994764	0.3722323324714637	0.09169591221499382	0.40680745470520896	0.1478953048191728	0.07260246557577749	0.3408793436381735	0.29453534370024836	0.26046100864760385	0.47454733865486115	0.4412648440949053	0.3521548935198052	0.5217332085158977	0.7068351186632719	0.19314808441539488	0.4124326320021387	0.9032321742458678	0.05181098881663519	0.42608820259724306	0.9824501963062887	0.052059497521560534	0.4320173171478908	1.0042202026298028	0.1128847730011693	0.47121552127557037	1.04846874975153	-0.04193980569007777	0.5043852973047644	0.44303212683248133	-0.0852496988404608	0.5391407868652083	0.7035763712968276	0.0446435416590186	0.4790286799274299	0.9258981371073916	0.10855846913526299	0.43111965292290816	0.9936825432324278	0.11357704152819247	0.44612242473892233	1.0245415490370036	0.1099727321925525	0.4622864128928923	1.0293090981993862
157	2.6610169491525424	0.26143654693649543	0.6270393692247838	0.8971745567635325	0.283156193621203	0.7680748012897384	1.3839349180015355	0.29133397925166604	0.9301891450092798	1.8291520501926923	0.23322355640037998	0.6720841025302386	1.8608739734300066	0.3126794487248549	0.7062244698136374	1.8670390181406358	0.29113463937596673	1.011414830875114	1.8821464996269521	0.031087159146584643	0.6613923558162433	0.920980156445681	0.05983615469460592	0.7679844762071782	1.3821212221158232	0.09492364819934404	0.9067152873599369	1.8301494625904948	0.11207781578906138	0.7208474820980453	1.8843788952992666	0.053547877165866675	0.7466424368410707	1.8807335838370636	0.13226222197311252	1.0470070273636982	1.9071291428349442	0.1067485300944789	0.510150831873334	0.36899036704769905	0.09171916500703463	0.4067906171156184	0.14787477145719816	0.07629616281642705	0.3413834968889011	0.2941455103689844	0.25509472691541035	0.4632659692558079	0.4427396101386322	0.34668797894956765	0.5100042018515057	0.7073102758354242	0.18849172005937478	0.4120162054814331	0.9034783086132355	0.056737654931160626	0.48069180400507144	0.9932626884917347	0.06108949529867505	0.4978151026734775	1.0097238437923235	0.11183869657582302	0.47177611928384533	1.044659011552486	-0.041882994209940745	0.5046773485619008	0.442966968041217	-0.08535703492348608	0.5392065876596319	0.7035099868793014	0.04697856835426178	0.4541004229997592	0.928006225544415	0.1183774259369519	0.4522225151197895	0.9966277392290159	0.11780240323361685	0.45533260988557034	1.0251757261093875	0.10382125480422022	0.4737887133309268	1.0381104438165751
158	2.6779661016949152	0.2614081632705311	0.6265613705628226	0.8971013446760738	0.28720794624697177	0.7669557952153936	1.375331577178316	0.289616033036524	0.9498287783535215	1.8351660828253802	0.22720748871948135	0.6581576550008416	1.8561694956841326	0.3104103551463392	0.7230227674004989	1.868928063758575	0.29024984826781786	1.0072772970697743	1.8705145169797097	0.030190906757675606	0.6592609217739053	0.9168790134537507	0.05990803394160003	0.7676773523523306	1.3819776742872605	0.09560009135460386	0.9050033985674903	1.8249650076151678	0.10921260915849627	0.6914893076086079	1.8741191338070522	0.053527022418411146	0.7476680071153372	1.8812251050744997	0.12542478415761937	1.0315093795423609	1.8990978766685849	0.10690917708162866	0.5100654803527526	0.36909656098049787	0.10266975136890295	0.40595098379192784	0.14729841752185385	0.07633118201608025	0.34132185010729615	0.2940636498715499	0.2550900185073131	0.4633287252831346	0.442699976529508	0.34579432231976215	0.5082593697336237	0.703847062461512	0.18195340069578306	0.4138509996375258	0.9038476100259002	0.06364674804857397	0.5091893197025757	0.9948059549275364	0.0683587491084939	0.524172687250744	1.0089513775228098	0.11509909909706686	0.4722162799622592	1.0445059238031698	-0.041860844361304154	0.504657962386966	0.4429636274740125	-0.08542078602282259	0.5391731473444097	0.7033156729489453	0.047129461771144424	0.45346726905958923	0.927766853089229	0.12208245598790067	0.4530767611054587	0.9976006146133993	0.12087982293421552	0.45567589065852215	1.0222149094390038	0.1153600374062452	0.4710221380354346	1.0333934631292818
159	2.694915254237288	0.26335312256205407	0.6118399463235218	0.8963218209408444	0.28723863889035084	0.7675478848264033	1.371553530439688	0.2895556221213601	0.9497276861280592	1.835367232454648	0.23272892683998464	0.6711662983186616	1.860656016349914	0.31041502964276624	0.7228768630537278	1.8688915443650826	0.29026953357619834	1.0055414331717367	1.8744124797318442	0.030757483444649694	0.6610726922483318	0.9172748191007952	0.05998398254288373	0.7676429487217593	1.3818631037341196	0.09569231695110533	0.9048961925616623	1.824930578706193	0.10891522154970885	0.6904834277349909	1.8739391505042284	0.053287722518590576	0.7467718794563187	1.8808530074643923	0.11963076200495588	1.0235439814798184	1.9001352583991038	0.10695550944161299	0.5107434814805365	0.37231814825379556	0.10278799995404775	0.405932241148616	0.14734375629636332	0.08002441276682534	0.34165257346333233	0.2937913013915973	0.25502726670602205	0.4630882301301618	0.44278676938873834	0.34576723380922614	0.5082580461696725	0.703880284770366	0.18186335024816774	0.4138245691935789	0.9039430491179523	0.0597255598130478	0.5086202535630577	0.9999407419480361	0.06817019526479658	0.5247905140099801	1.013231213519779	0.12009577604053769	0.48404367658618835	1.045506446609837	-0.04187587394852203	0.5049175344727138	0.4427790766358268	-0.08581496208115577	0.53935608776291	0.6992047108201105	0.042753005313417344	0.4530424150818062	0.9244632532668701	0.11829569561259963	0.4527194678868443	0.9978138850321632	0.11766638892795028	0.45574387967836183	1.0253487507721528	0.10772340776846925	0.47313116917649317	1.030457939187865
160	2.711864406779661	0.26147993297971167	0.6269647608084621	0.8969708523481758	0.2870123374706576	0.7682700202164482	1.3680487111947837	0.28952839011618436	0.9500909312287222	1.8354125217570363	0.23340460106372493	0.672643965405657	1.860969276373081	0.3111889095833274	0.7249804395291205	1.8693440357771003	0.29713954648929414	1.022120748995872	1.8798231066676574	0.0310561024477885	0.6610740520541519	0.920743217162937	0.060045847119186264	0.7680360462296999	1.3818490763208566	0.09588006777571423	0.9052778831845247	1.8250387092257387	0.11414446261723075	0.7046655701149223	1.8788301425913905	0.053272655530929476	0.7466332970952242	1.8808056478569892	0.12910437091201352	1.0692244709088707	1.9144712377113615	0.10690586123848783	0.5105675619830683	0.37227907641263885	0.10283422436393387	0.40589448764687597	0.14730948656619466	0.08485953960242335	0.35258928169043996	0.29157906301768605	0.25496784569685643	0.4630038631080181	0.44275868214958497	0.34572319417640107	0.5081597078009933	0.7037951162862455	0.18181581970748298	0.41375473064785934	0.9041731479856332	0.05973961532658142	0.5086790067696586	0.9996742968685303	0.06821369684993257	0.5248002171351742	1.0132832361442987	0.1203547048535778	0.4841726397098436	1.0457624491635966	-0.03762649504291894	0.5171034396125376	0.44120596723311406	-0.08589505483872704	0.5396356647386885	0.6993289647752536	0.042897956616537274	0.45307087464664986	0.9280343738976686	0.11840012553525689	0.4533235097108412	0.9980292803855559	0.11776950300275446	0.4562440620155957	1.0255152743346843	0.10394184199823843	0.4723290610291285	1.0342214470657152
